<?xml version="1.0" standalone="no"?><svg xmlns="http://www.w3.org/2000/svg" viewBox="0 0 1440 320"><path fill="#273036" fill-opacity="1" d="M0,0L30,26.7C60,53,120,107,180,133.3C240,160,300,160,360,160C420,160,480,160,540,170.7C600,181,660,203,720,208C780,213,840,203,900,170.7C960,139,1020,85,1080,53.3C1140,21,1200,11,1260,26.7C1320,43,1380,85,1410,106.7L1440,128L1440,320L1410,320C1380,320,1320,320,1260,320C1200,320,1140,320,1080,320C1020,320,960,320,900,320C840,320,780,320,720,320C660,320,600,320,540,320C480,320,420,320,360,320C300,320,240,320,180,320C120,320,60,320,30,320L0,320Z"></path></svg>